<?xml version="1.0" encoding="UTF-8"?>
<svg id="Layer_1" data-name="Layer 1" xmlns="http://www.w3.org/2000/svg" viewBox="0 0 717.65 483.08">
  <defs>
    <style>
      .cls-1 {
        fill: #00b259;
      }

      .cls-2 {
        fill: #c3abd3;
      }

      .cls-3 {
        fill: #fbb034;
      }

      .cls-4 {
        fill: #f57e25;
      }

      .cls-5 {
        fill: #71d0f6;
      }

      .cls-6 {
        fill: #a0cf67;
      }

      .cls-7 {
        fill: #009ddc;
      }

      .cls-8 {
        fill: #ffd200;
      }

      .cls-9, .cls-10, .cls-11 {
        fill: #fff;
      }

      .cls-10 {
        font-family: Lato-Light, Lato;
        font-size: 32.67px;
        font-weight: 300;
      }

      .cls-12 {
        fill: #51729e;
        stroke: #51729e;
        stroke-miterlimit: 10;
      }

      .cls-11 {
        font-family: Lato-Black, Lato;
        font-size: 71.47px;
        font-weight: 800;
      }

      .cls-13 {
        letter-spacing: -.01em;
      }

      .cls-14 {
        letter-spacing: -.02em;
      }

      .cls-15 {
        letter-spacing: -.01em;
      }

      .cls-16 {
        letter-spacing: -.01em;
      }

      .cls-17 {
        letter-spacing: -.02em;
      }

      .cls-18 {
        letter-spacing: -.01em;
      }

      .cls-19 {
        fill: #7581bf;
      }
    </style>
  </defs>
  <path class="cls-12" d="M33.3.5h487.97c28.88,0,52.33,23.45,52.33,52.33v162.64c0,28.14-22.84,50.98-50.98,50.98H33.76c-18.35,0-33.26-14.9-33.26-33.26V33.3C.5,15.2,15.2.5,33.3.5Z"/>
  <g>
    <g>
      <path class="cls-9" d="M256.75,161.95c-83.17,70.06-237.8,14.88-236.91-75.67.52-53.02,69.56-72.13,136.87-45.14-70.31-23.3-115.13-.49-115.13,36.07,0,48.43,74.39,94.82,131.71,79.36l-43.29-26.21h5.45l64.88,28.41C136.15,193.44,13.23,135.77,34.73,63.36c-29.42,78.8,108.61,153.79,194.63,98.01l-89.72-31.01h4.16l112.96,31.59ZM243.36,132.78h0s0,0,0,0Z"/>
      <text class="cls-11" transform="translate(68.72 104.18)"><tspan x="0" y="0">G</tspan><tspan class="cls-13" x="51.63" y="0">E</tspan><tspan x="91.51" y="0">O</tspan><tspan class="cls-16" x="149.72" y="0">R</tspan><tspan x="195.78" y="0">GE </tspan><tspan x="166.76" y="61.26" xml:space="preserve">  B</tspan><tspan class="cls-15" x="247.62" y="61.26">R</tspan><tspan class="cls-14" x="293.68" y="61.26">O</tspan><tspan x="350.53" y="61.26">WN</tspan></text>
    </g>
    <text class="cls-10" transform="translate(406.47 195.93)"><tspan class="cls-18" x="0" y="0">C</tspan><tspan x="21.69" y="0">OLL</tspan><tspan class="cls-17" x="80.61" y="0">E</tspan><tspan x="99.04" y="0">GE</tspan></text>
  </g>
  <path class="cls-4" d="M516.15,208.96h0c28.31,0,51.3,22.99,51.3,51.3v12.36h-51.3v-63.66h0Z" transform="translate(782.6 -301.01) rotate(90)"/>
  <rect class="cls-3" x="452.49" y="208.96" width="51.3" height="63.67" transform="translate(718.94 -237.35) rotate(90)"/>
  <rect class="cls-2" x="388.81" y="208.96" width="51.3" height="63.67" transform="translate(655.26 -173.67) rotate(90)"/>
  <rect class="cls-19" x="325.15" y="208.96" width="51.3" height="63.66" transform="translate(591.59 -110) rotate(90)"/>
  <rect class="cls-5" x="261.48" y="208.96" width="51.3" height="63.67" transform="translate(527.92 -46.33) rotate(90)"/>
  <rect class="cls-7" x="197.82" y="208.96" width="51.3" height="63.67" transform="translate(464.26 17.33) rotate(90)"/>
  <rect class="cls-8" x="134.15" y="208.96" width="51.3" height="63.66" transform="translate(400.59 81) rotate(90)"/>
  <rect class="cls-6" x="70.47" y="208.96" width="51.3" height="63.67" transform="translate(336.92 144.67) rotate(90)"/>
  <path class="cls-1" d="M6.73,208.96h51.3v30.3c0,18.42-14.96,33.38-33.38,33.38H6.73v-63.68h0Z" transform="translate(273.18 208.41) rotate(90)"/>
</svg>